<svg width="40" height="40" viewBox="0 0 40 40" fill="none" xmlns="http://www.w3.org/2000/svg">
<g id="IMAGE">
<path id="Vector" d="M16 19C16.5523 19 17 19.4477 17 20C17 20.5523 16.5523 21 16 21C15.4477 21 15 20.5523 15 20C15 19.4477 15.4477 19 16 19Z" stroke="#FFCA42" stroke-width="1.5"/>
<path id="Vector_2" d="M23 19C23.5523 19 24 19.4477 24 20C24 20.5523 23.5523 21 23 21C22.4477 21 22 20.5523 22 20C22 19.4477 22.4477 19 23 19Z" stroke="#FFCA42" stroke-width="1.5"/>
<path id="Vector_3" d="M30 19C30.5523 19 31 19.4477 31 20C31 20.5523 30.5523 21 30 21C29.4477 21 29 20.5523 29 20C29 19.4477 29.4477 19 30 19Z" stroke="#FFCA42" stroke-width="1.5"/>
</g>
</svg>
